<svg width="36.000000" height="36.000000" viewBox="0 0 36 36" fill="none" xmlns="http://www.w3.org/2000/svg" xmlns:xlink="http://www.w3.org/1999/xlink">
	<desc>
			Created with Pixso.
	</desc>
	<defs/>
	<rect id="Frame 34" rx="0.000000" width="35.000000" height="35.000000" transform="translate(0.500000 0.500000)" fill="#FFFFFF" fill-opacity="0"/>
	<path id="Vector" d="M27.22 9.35L22.68 4.82C22.19 4.32 21.47 4 20.82 4L9.66 4C8.19 4.05 7.04 5.2 7.04 6.67L7.04 13.07C6.71 13.07 6.38 13.02 5.67 12.8C5.62 12.8 5.51 12.8 5.4 12.8C5.12 12.8 4.85 12.91 4.69 13.07C3.7 14.11 3.76 14.06 2.39 14.44C2.01 14.55 1.73 14.82 1.62 15.21C1.29 16.57 1.29 16.52 0.31 17.5C0.04 17.78 -0.07 18.21 0.04 18.6C0.42 19.91 0.42 19.91 0.04 21.22C-0.07 21.6 0.04 22.04 0.31 22.32C1.29 23.3 1.29 23.3 1.62 24.61C1.73 25 2.01 25.27 2.39 25.38C2.5 25.43 2.55 25.43 2.66 25.43L2.66 31.12C2.66 31.45 2.77 31.72 3.04 31.89C3.32 32.05 3.65 32.05 3.92 31.94L7.04 30.35L10.1 31.94C10.26 32 10.37 32 10.54 32L25.41 32C26.83 32 28.04 30.85 28.04 29.42L28.04 11.21C28.04 10.56 27.71 9.85 27.22 9.35ZM21.04 5.8C21.15 5.85 21.31 5.91 21.42 6.02L26.01 10.61C26.12 10.72 26.18 10.89 26.23 11.05L21.04 11.05L21.04 5.8ZM1.84 21.33C2.12 20.13 2.12 19.69 1.84 18.49C2.66 17.61 2.88 17.23 3.21 16.03C4.41 15.7 4.74 15.48 5.62 14.6C6.16 14.77 6.54 14.82 7.04 14.82C7.47 14.82 7.86 14.77 8.4 14.6C9.22 15.48 9.61 15.7 10.81 16.03C11.14 17.23 11.3 17.56 12.18 18.49C11.85 19.69 11.85 20.13 12.18 21.33C11.36 22.21 11.14 22.59 10.81 23.79C9.99 24.01 9.5 24.17 8.73 24.83C8.19 24.61 7.64 24.5 7.04 24.5C6.38 24.5 5.83 24.61 5.29 24.89C4.52 24.23 4.03 24.01 3.21 23.79C2.88 22.59 2.72 22.26 1.84 21.33ZM7.42 28.6C7.15 28.5 6.87 28.5 6.6 28.6L4.41 29.75L4.41 26.42C4.41 26.47 4.41 26.47 4.41 26.47C4.63 26.69 4.9 26.75 5.12 26.75C5.34 26.75 5.51 26.69 5.72 26.64C6.11 26.36 6.54 26.25 7.04 26.25C7.47 26.25 7.91 26.36 8.29 26.58C8.51 26.75 8.68 26.75 8.9 26.75C9.17 26.75 9.39 26.69 9.61 26.47C9.61 26.47 9.61 26.47 9.66 26.42L9.66 29.75L7.42 28.6ZM26.29 29.42C26.29 29.86 25.85 30.3 25.41 30.3L11.41 30.3L11.41 25.43C11.47 25.43 11.52 25.43 11.63 25.38C12.01 25.27 12.29 25 12.4 24.61C12.72 23.25 12.72 23.3 13.71 22.32C13.98 22.04 14.09 21.6 13.98 21.22C13.6 19.91 13.6 19.91 13.98 18.6C14.09 18.21 13.98 17.78 13.71 17.5C12.72 16.52 12.72 16.52 12.4 15.21C12.29 14.82 12.01 14.55 11.63 14.44C10.32 14.06 10.32 14.11 9.33 13.07C9.17 12.91 8.95 12.85 8.79 12.8L8.79 6.67C8.79 6.18 9.17 5.75 9.66 5.75L19.29 5.75L19.29 11.49C19.29 12.2 19.83 12.75 20.6 12.75L26.29 12.75L26.29 29.42Z" fill="#5C8EE6" fill-opacity="1.000000" fill-rule="evenodd"/>
</svg>
