<svg width="36.000000" height="36.000000" viewBox="0 0 36 36" fill="none" xmlns="http://www.w3.org/2000/svg" xmlns:xlink="http://www.w3.org/1999/xlink">
	<desc>
			Created with Pixso.
	</desc>
	<defs/>
	<rect id="Frame 37" rx="0.000000" width="35.000000" height="35.000000" transform="translate(0.500000 0.500000)" fill="#FFFFFF" fill-opacity="0"/>
	<path id="Vector" d="M11.62 13.87C10.64 13.87 9.87 14.69 9.87 15.62C9.87 16.6 10.64 17.37 11.62 17.37C12.55 17.37 13.37 16.6 13.37 15.62C13.37 14.69 12.55 13.87 11.62 13.87ZM17.75 6C9.05 6 2 13.05 2 21.75C2 24.64 2.76 27.38 4.13 29.67C4.4 30.22 5 30.55 5.6 30.55L29.83 30.55C30.43 30.55 31.03 30.22 31.36 29.67C32.67 27.38 33.5 24.64 33.5 21.75C33.5 13.05 26.44 6 17.75 6ZM17.75 27.87C16.49 27.87 15.56 26.94 15.56 25.68C15.56 24.48 16.49 23.5 17.75 23.5C18.95 23.5 19.93 24.48 19.93 25.68C19.93 26.94 18.95 27.87 17.75 27.87ZM29.34 27.87L22.01 27.87C22.34 27.21 22.56 26.5 22.56 25.68C22.56 25.35 22.5 25.03 22.39 24.7L27.42 22.57C28.08 22.24 28.41 21.47 28.14 20.82C27.81 20.16 27.04 19.83 26.39 20.1L21.19 22.35C20.32 21.47 19.06 20.87 17.75 20.87C15.07 20.87 12.93 23.06 12.93 25.68C12.93 26.5 13.1 27.21 13.48 27.87L6.1 27.87C5.11 26.01 4.62 23.93 4.62 21.75C4.62 14.53 10.47 8.62 17.75 8.62C24.96 8.62 30.87 14.53 30.87 21.75C30.87 23.93 30.32 26.01 29.34 27.87ZM9 20C8.01 20 7.25 20.82 7.25 21.75C7.25 22.73 8.01 23.5 9 23.5C9.92 23.5 10.75 22.73 10.75 21.75C10.75 20.82 9.92 20 9 20ZM17.75 11.25C16.76 11.25 16 12.07 16 13C16 13.98 16.76 14.75 17.75 14.75C18.67 14.75 19.5 13.98 19.5 13C19.5 12.07 18.67 11.25 17.75 11.25ZM23.87 13.87C22.89 13.87 22.12 14.69 22.12 15.62C22.12 16.6 22.89 17.37 23.87 17.37C24.8 17.37 25.62 16.6 25.62 15.62C25.62 14.69 24.8 13.87 23.87 13.87Z" fill="#5C8EE6" fill-opacity="1.000000" fill-rule="nonzero"/>
</svg>
